<svg width="40" height="40" viewBox="0 0 40 40" fill="none" xmlns="http://www.w3.org/2000/svg">
<path d="M0.18 15.3869C0.611 9.57393 0.827 6.66693 3.745 3.74993C6.664 0.83193 9.57 0.61493 15.384 0.18293C16.9199 0.0660322 18.4596 0.00599113 20 0.00292969C21.555 0.00292969 23.11 0.0709297 24.616 0.18293C30.43 0.61493 33.336 0.83193 36.254 3.74893C39.172 6.66693 39.388 9.57393 39.821 15.3869C39.933 16.8939 40.001 18.4489 40.001 20.0029C40.001 21.5579 39.933 23.1129 39.821 24.6189C39.388 30.4329 39.171 33.3389 36.254 36.2569C33.336 39.1749 30.43 39.3909 24.616 39.8239C23.109 39.9359 21.555 40.0039 20 40.0039C18.445 40.0039 16.89 39.9359 15.384 39.8239C9.57 39.3909 6.664 39.1749 3.746 36.2569C0.828 33.3399 0.612 30.4329 0.179 24.6199C0.0624088 23.0837 0.0027013 21.5436 0 20.0029C0 18.4489 0.068 16.8939 0.18 15.3869ZM26.618 28.6549L30.002 12.6969C30.302 11.2899 29.496 10.7399 28.575 11.0849L8.684 18.7499C7.327 19.2809 7.347 20.0419 8.453 20.3869L14.129 22.5139L19.399 18.6819C19.4742 18.6136 19.5622 18.5607 19.6579 18.5264C19.7536 18.492 19.8551 18.4768 19.9566 18.4817C20.0582 18.4866 20.1578 18.5114 20.2497 18.5548C20.3416 18.5981 20.4241 18.6592 20.4925 18.7344C20.5609 18.8097 20.6137 18.8977 20.6481 18.9933C20.6824 19.089 20.6976 19.1905 20.6927 19.2921C20.6878 19.3936 20.663 19.4932 20.6197 19.5851C20.5763 19.6771 20.5152 19.7596 20.44 19.8279L16.436 23.4679L16.071 28.6309C16.602 28.6309 16.831 28.4009 17.107 28.1259L19.595 25.7319L24.751 29.5319C25.697 30.0619 26.363 29.7809 26.618 28.6549Z" fill="white"/>
</svg>
