<svg width="40" height="40" viewBox="0 0 40 40" fill="none" xmlns="http://www.w3.org/2000/svg">
<path d="M0.18 15.384C0.613 9.57 0.83 6.664 3.747 3.746C6.664 0.828 9.57 0.612 15.385 0.179C16.9206 0.0624563 18.46 0.00274879 20 0C21.554 0 23.109 0.068 24.616 0.18C30.43 0.613 33.336 0.83 36.254 3.747C39.172 6.665 39.388 9.571 39.821 15.385C39.933 16.892 40.001 18.446 40.001 20.001C40.001 21.556 39.933 23.111 39.821 24.617C39.388 30.431 39.171 33.337 36.254 36.255C33.336 39.173 30.43 39.389 24.616 39.822C23.109 39.934 21.554 40.002 20 40.002C18.445 40.002 16.89 39.934 15.384 39.822C9.57 39.389 6.664 39.172 3.746 36.255C0.829 33.336 0.613 30.43 0.18 24.616C0.0630998 23.0801 0.0030587 21.5404 0 20C0 18.445 0.068 16.89 0.18 15.384ZM10.192 13.16H7.3C6.474 13.16 6.309 13.56 6.309 13.995C6.309 14.762 7.3 18.601 10.869 23.675C13.266 27.13 16.637 29.015 19.694 29.015C21.529 29.015 21.76 28.599 21.76 27.881V25.261C21.76 24.426 21.925 24.259 22.52 24.259C22.95 24.259 23.677 24.476 25.396 26.145C25.8722 26.629 26.3344 27.1265 26.782 27.637C27.621 28.581 28.007 29.016 28.784 29.016H31.676C32.502 29.016 32.916 28.599 32.667 27.781C32.419 26.946 31.477 25.778 30.237 24.359C29.893 23.933 29.449 23.497 29.061 23.116C28.706 22.766 28.397 22.464 28.255 22.256C27.825 21.689 27.925 21.439 28.255 20.955C28.255 20.955 31.775 15.947 32.138 14.228C32.32 13.611 32.138 13.16 31.263 13.16H28.37C28.0989 13.1438 27.83 13.2164 27.604 13.367C27.378 13.517 27.206 13.737 27.114 13.995C27.114 13.995 25.626 17.6 23.561 19.953C22.883 20.637 22.569 20.854 22.205 20.854C22.04 20.854 21.759 20.637 21.759 20.02V14.228C21.759 13.494 21.544 13.16 20.933 13.16H16.388C15.926 13.16 15.645 13.494 15.645 13.828C15.645 14.095 15.798 14.285 15.994 14.526C16.312 14.918 16.74 15.446 16.801 16.666V20.971C16.801 21.923 16.636 22.089 16.273 22.089C15.281 22.089 12.901 18.451 11.48 14.295C11.216 13.494 10.935 13.16 10.191 13.16H10.192Z" fill="white"/>
</svg>
