<svg width="16" height="16" viewBox="0 0 16 16" fill="none" xmlns="http://www.w3.org/2000/svg">
<path fill-rule="evenodd" clip-rule="evenodd" d="M15.707 14.29L12.598 11.2H12.588C13.5029 9.99092 13.998 8.5162 13.998 7C13.998 3.14 10.858 0 6.998 0C3.14 0 0 3.14 0 7C0 10.86 3.14 14 6.999 14C8.579 14 10.029 13.47 11.199 12.59V12.6L14.288 15.71C14.488 15.91 14.738 16 14.998 16C15.258 16 15.508 15.9 15.708 15.71C16.098 15.32 16.098 14.68 15.708 14.29H15.707ZM7 12C4.24 12 2 9.76 2 7C2 4.24 4.24 2 7 2C9.76 2 12 4.24 12 7C12 9.76 9.76 12 7 12Z" fill="white" fill-opacity="0.3"/>
</svg>
