<svg width="34" height="50" viewBox="0 0 34 50" fill="none" xmlns="http://www.w3.org/2000/svg">
<path d="M8.95477 48.925C8.60304 48.7765 8.31075 48.5152 8.12402 48.1822C7.93729 47.8492 7.86675 47.4635 7.92352 47.0859L11.0516 26.7188H2.75008C2.4869 26.7258 2.22561 26.6724 1.98636 26.5625C1.74712 26.4525 1.53633 26.2891 1.37024 26.0849C1.20416 25.8806 1.08722 25.6409 1.02846 25.3842C0.969702 25.1276 0.970684 24.8609 1.03133 24.6047L6.18758 2.26094C6.27831 1.87641 6.49876 1.53487 6.8118 1.29382C7.12485 1.05278 7.51138 0.926945 7.90633 0.937504H25.0938C25.3506 0.936631 25.6043 0.993301 25.8363 1.10335C26.0683 1.2134 26.2727 1.37403 26.4345 1.57344C26.5985 1.7751 26.7147 2.01135 26.7742 2.26441C26.8338 2.51746 26.8351 2.78072 26.7782 3.03438L23.8048 16.4063H31.9688C32.291 16.4056 32.6068 16.4955 32.8803 16.6657C33.1538 16.8359 33.374 17.0795 33.5157 17.3688C33.6389 17.6464 33.6863 17.9517 33.6531 18.2536C33.6198 18.5555 33.5072 18.8433 33.3266 19.0875L10.9829 48.3063C10.8319 48.5301 10.6303 48.7152 10.3944 48.8466C10.1584 48.978 9.89491 49.052 9.62508 49.0625C9.3951 49.0582 9.16787 49.0116 8.95477 48.925Z" fill="black"/>
</svg>
