<svg width="8" height="9" viewBox="0 0 8 9" fill="none" xmlns="http://www.w3.org/2000/svg">
<path d="M6.731 0.644986C6.8876 0.59271 7.05566 0.585074 7.21636 0.622935C7.37706 0.660796 7.52404 0.742657 7.64083 0.859346C7.75762 0.976035 7.83961 1.12294 7.87762 1.2836C7.91562 1.44427 7.90813 1.61234 7.856 1.76899L5.847 7.79499C5.79311 7.95608 5.69419 8.09837 5.56195 8.205C5.42971 8.31163 5.26969 8.37814 5.10082 8.39666C4.93196 8.41517 4.76133 8.38492 4.60913 8.30948C4.45692 8.23404 4.32952 8.11658 4.242 7.97099L2.965 5.84299C2.88988 5.71785 2.78514 5.61311 2.66 5.53799L0.529997 4.25799C0.384406 4.17046 0.266939 4.04306 0.1915 3.89086C0.116062 3.73865 0.0858105 3.56802 0.104327 3.39916C0.122844 3.2303 0.189354 3.07028 0.295984 2.93804C0.402614 2.8058 0.544899 2.70688 0.705997 2.65299L6.731 0.644986Z" fill="white"/>
</svg>
