<svg width="6" height="5" viewBox="0 0 6 5" fill="none" xmlns="http://www.w3.org/2000/svg">
<path d="M3.78 4.524C3.6863 4.64079 3.56756 4.73505 3.43256 4.79982C3.29756 4.86459 3.14973 4.89822 3 4.89822C2.85026 4.89822 2.70244 4.86459 2.56744 4.79982C2.43243 4.73505 2.3137 4.64079 2.22 4.524L0.299998 2.124C0.18258 1.97696 0.109031 1.79977 0.0878043 1.6128C0.0665777 1.42584 0.098535 1.23667 0.180003 1.06705C0.26147 0.897431 0.389143 0.754239 0.548348 0.653931C0.707552 0.553622 0.891828 0.500268 1.08 0.5H4.92C5.10834 0.500118 5.29283 0.553424 5.45221 0.653782C5.61159 0.754141 5.73939 0.89747 5.8209 1.06727C5.9024 1.23707 5.93429 1.42643 5.9129 1.61356C5.89152 1.80069 5.81771 1.97797 5.7 2.125L3.78 4.524Z" fill="white"/>
</svg>
